<svg width="18" height="18" viewBox="0 0 18 18" fill="none" xmlns="http://www.w3.org/2000/svg">
<path d="M11.8001 9L17.2203 3.5798C17.9935 2.80662 17.9935 1.55307 17.2203 0.779884C16.4471 0.00670135 15.1936 0.00670135 14.4204 0.779884L9.00019 6.20008L3.58 0.779884C2.80682 0.00670135 1.55326 0.00670135 0.780082 0.779884C0.00689971 1.55307 0.00689971 2.80662 0.780082 3.5798L6.20028 9L0.780082 14.4202C0.00689971 15.1934 0.00689971 16.4469 0.780082 17.2201C1.16667 17.6067 1.67335 17.8 2.18002 17.8C2.68669 17.8 3.19341 17.6067 3.57996 17.2201L9.00019 11.7999L14.4204 17.2201C14.807 17.6067 15.3137 17.8 15.8203 17.8C16.327 17.8 16.8337 17.6067 17.2203 17.2201C17.9935 16.4469 17.9935 15.1934 17.2203 14.4202L11.8001 9Z" fill="#D51A52"/>
</svg>
