<svg width="40" height="40" viewBox="0 0 40 40" fill="none" xmlns="http://www.w3.org/2000/svg">
<circle cx="20" cy="20" r="19" fill="white" stroke="#D51A52" stroke-width="2"/>
<path d="M22.8001 20L28.2203 14.5798C28.9935 13.8066 28.9935 12.5531 28.2203 11.7799C27.4471 11.0067 26.1936 11.0067 25.4204 11.7799L20.0002 17.2001L14.58 11.7799C13.8068 11.0067 12.5533 11.0067 11.7801 11.7799C11.0069 12.5531 11.0069 13.8066 11.7801 14.5798L17.2003 20L11.7801 25.4202C11.0069 26.1934 11.0069 27.4469 11.7801 28.2201C12.1667 28.6067 12.6733 28.8 13.18 28.8C13.6867 28.8 14.1934 28.6067 14.58 28.2201L20.0002 22.7999L25.4204 28.2201C25.807 28.6067 26.3137 28.8 26.8203 28.8C27.327 28.8 27.8337 28.6067 28.2203 28.2201C28.9935 27.4469 28.9935 26.1934 28.2203 25.4202L22.8001 20Z" fill="#D51A52"/>
</svg>
